# xmcd
# Track frame offsets:
# 150
# 5085
# 25161
# 39770
# 57796
# 78418
# 94203
# 114365
# 134190
# 150504
# 165558
# 188860
# 205229
#
# Disc length: 2971 seconds
# Revision: 0
# Processed by: cddbd v1.5.2PL0 Copyright (c) Steve Scherf et al.
# Submitted via: VisiTrax 2.10.3.257 - For more info visit www.synapsa.com
#
DISCID=a20b990d
DTITLE=Ashanti - Declaration, The
DYEAR=2008
DGENRE=R&B
TTITLE0=Intro
TTITLE1=Way That I Love You, The
TTITLE2=You're Gonna Miss
TTITLE3=So Over You
TTITLE4=Struggle
TTITLE5=Girlfriend
TTITLE6=Things You Make Me Do
TTITLE7=In These Streets
TTITLE8=Good Good
TTITLE9=Body On Me
TTITLE10=Mother
TTITLE11=Shine
TTITLE12=Declaration, The
EXTD=
EXTT0=
EXTT1=
EXTT2=
EXTT3=
EXTT4=
EXTT5=
EXTT6=
EXTT7=
EXTT8=
EXTT9=
EXTT10=
EXTT11=
EXTT12=
PLAYORDER=
